<svg width="1330" height="1201" xmlns="http://www.w3.org/2000/svg" xmlns:xlink="http://www.w3.org/1999/xlink" xml:space="preserve" overflow="hidden"><defs><radialGradient cx="-77068.2" cy="-679553" r="4060897" fx="-77068.3" fy="-679553" gradientUnits="userSpaceOnUse" spreadMethod="pad" id="fill0" gradientTransform="matrix(0.000360892 0 0 0.000360892 536 365)"><stop offset="0" stop-color="#B4E5A2" stop-opacity="1"/><stop offset="0.46" stop-color="#2D5A3A" stop-opacity="1"/><stop offset="1" stop-color="#2D4A3A" stop-opacity="1"/></radialGradient></defs><g transform="translate(-485 -114)"><g><path d="M674.5 580.5 674.5 1124.78" stroke="#59941F" stroke-width="25.2083" stroke-linecap="butt" stroke-linejoin="miter" stroke-miterlimit="8" stroke-opacity="1" fill="none" fill-rule="evenodd"/><path d="M855.5 449.5 855.5 1124.25" stroke="#468333" stroke-width="25.2083" stroke-linecap="butt" stroke-linejoin="miter" stroke-miterlimit="8" stroke-opacity="1" fill="none" fill-rule="evenodd"/><path d="M1036.5 687.5 1036.5 1072.78" stroke="#2F641C" stroke-width="25.2083" stroke-linecap="butt" stroke-linejoin="miter" stroke-miterlimit="8" stroke-opacity="1" fill="none" fill-rule="evenodd"/><path d="M1216.5 687.5 1216.5 1072.78" stroke="#2D5A3A" stroke-width="25.2083" stroke-linecap="butt" stroke-linejoin="miter" stroke-miterlimit="8" stroke-opacity="1" fill="none" fill-rule="evenodd"/><path d="M1397.5 449.5 1397.5 1072.69" stroke="#2D4A3A" stroke-width="25.2083" stroke-linecap="butt" stroke-linejoin="miter" stroke-miterlimit="8" stroke-opacity="1" fill="none" fill-rule="evenodd"/><path d="M508.201 658.222 536.482 634.227 564.857 610.282 593.116 586.697 621.228 563.63 649.125 541.274 676.743 519.822 703.911 499.549 717.507 489.771 730.908 480.406 744.207 471.409 757.401 462.802 770.491 454.61 783.479 446.857 796.369 439.567 809.166 432.766 821.881 426.481 834.528 420.741 847.122 415.581 859.686 411.038 872.243 407.157 884.82 403.994 897.442 401.617 910.129 400.108 922.884 399.566 935.746 400.11 944.298 401.3 952.733 403.374 960.816 406.269 968.435 409.898 975.512 414.148 982.683 419.388 993.285 429.327 1002.62 440.871 1010.39 453.01 1016.98 465.595 1022.68 478.564 1027.69 491.883 1032.17 505.513 1036.24 519.406 1039.99 533.498 1043.51 547.715 1046.86 561.985 1053.26 590.241 1053.2 589.949 1059.72 617.801 1059.53 617.033 1062.97 630.587 1062.75 629.75 1066.37 642.906 1066.04 641.789 1069.9 654.437 1069.43 652.995 1073.56 665.023 1072.89 663.201 1077.35 674.497 1076.38 672.231 1081.22 682.683 1079.8 679.903 1085.07 689.4 1083.01 686.053 1088.74 694.484 1085.75 690.581 1092.01 697.834 1087.74 693.538 1094.57 699.501 1090.37 696.269 1094.01 698.731 1090.7 696.707 1094.51 698.805 1090.84 697.002 1094.81 698.722 1090.84 697.233 1094.99 698.561 1090.84 697.457 1095.17 698.379 1090.96 697.699 1095.47 698.2 1091.34 697.942 1096.04 698.009 1092.1 698.134 1097 697.753 1093.28 698.206 1098.47 697.344 1095.3 697.993 1100.85 696.635 1098.29 697.347 1104.19 695.509 1102.09 696.222 1108.33 693.921 1106.6 694.603 1113.16 691.855 1111.71 692.493 1118.58 689.315 1117.35 689.905 1124.51 686.312 1123.47 686.853 1130.91 682.862 1130.01 683.358 1137.71 678.986 1136.93 679.439 1144.88 674.701 1143.89 675.31 1160.49 664.803 1159.41 665.504 1176.84 653.731 1175.98 654.326 1194.12 641.417 1193.42 641.927 1212.16 628.013 1211.57 628.454 1230.8 613.665 1230.31 614.049 1249.9 598.516 1249.48 598.854 1269.34 582.707 1268.98 583.005 1288.98 566.375 1288.66 566.64 1308.69 549.657 1308.29 550.001 1347.98 515.496 1347.64 515.798 1367.07 498.537 1366.87 498.713 1385.88 481.621 1385.7 481.782 1402.42 466.581 1460.24 530.16 1443.43 545.442 1424.24 562.702 1404.53 580.203 1364.47 615.031 1344.08 632.32 1323.74 649.232 1303.5 665.697 1283.44 681.592 1263.68 696.793 1244.3 711.183 1225.38 724.645 1207 737.069 1189.37 748.229 1180.53 753.495 1171.99 758.344 1163.59 762.855 1155.3 767.016 1147.1 770.812 1138.95 774.225 1130.8 777.232 1122.57 779.794 1114.15 781.853 1105.52 783.288 1096.78 783.966 1088.03 783.84 1079.34 782.874 1070.83 781.06 1062.61 778.429 1054.81 775.053 1047.51 771.028 1040.06 765.992 1028.94 756.287 1019.08 744.87 1010.85 732.776 1003.88 720.194 997.871 707.207 992.601 693.861 987.907 680.199 983.665 666.269 979.776 652.135 976.134 637.779 969.488 609.396 963.081 581.149 963.153 581.459 959.9 567.594 960.021 568.095 956.659 554.503 956.851 555.249 953.332 542.04 953.617 543.061 949.893 530.348 950.308 531.684 946.329 519.579 946.93 521.286 942.648 509.9 943.522 512.046 938.888 501.49 940.167 504.151 935.133 494.537 937.016 497.78 931.533 489.219 934.305 493.063 928.325 485.668 932.348 489.997 925.822 483.878 929.856 487.223 926.373 484.677 929.607 486.823 925.969 484.639 929.611 486.594 925.812 484.784 929.801 486.444 925.835 485.023 930.066 486.297 925.928 485.28 930.266 486.113 925.949 485.512 930.055 485.884 921.073 485.504 924.709 485.504 915.403 485.899 918.658 485.636 909.041 486.78 911.919 486.339 902 488.207 904.525 487.652 894.315 490.22 896.521 489.602 886.03 492.844 887.955 492.199 877.192 496.091 878.871 495.444 867.848 499.96 869.315 499.327 858.042 504.443 859.325 503.835 847.813 509.525 848.938 508.949 837.196 515.188 838.185 514.646 826.226 521.411 827.097 520.904 814.929 528.168 815.698 527.698 803.333 535.436 804.013 535.001 791.46 543.19 792.063 542.789 779.333 551.402 779.868 551.034 766.971 560.046 767.446 559.71 754.393 569.097 755.003 568.65 728.47 588.449 729.132 587.945 702.1 608.943 702.611 608.539 675.163 630.536 675.549 630.223 647.767 653.019 648.044 652.79 620.012 676.185 620.191 676.035 592.08 699.756 563.799 723.751ZM1431.33 498.37 1280.02 465.099 1555.15 379.173 1458.81 650.839Z" fill="url(#fill0)" fill-rule="nonzero"/><path d="M488 963.001C488 932.625 512.625 908 543.002 908L1522 908C1552.38 908 1577 932.625 1577 963.001L1577 1183C1577 1213.37 1552.38 1238 1522 1238L543.002 1238C512.625 1238 488 1213.37 488 1183Z" fill="#BE1D37" fill-rule="evenodd" fill-opacity="1"/><text fill="#FFFFFF" fill-opacity="1" font-family="Copperplate,Copperplate_MSFontService,sans-serif" font-style="normal" font-variant="normal" font-weight="400" font-stretch="normal" font-size="202" text-anchor="start" direction="ltr" writing-mode="lr-tb" unicode-bidi="normal" text-decoration="none" transform="matrix(1 0 0 1 634.532 1134)">STATUS</text></g></g></svg>